<svg xmlns="http://www.w3.org/2000/svg" viewBox="0 0 256 256" role="img" aria-labelledby="title desc">
  <title id="title">Rayford AI mark</title>
  <desc id="desc">A refined R monogram with a signal ray.</desc>
  <rect width="256" height="256" rx="52" fill="#500000"/>
  <path d="M66 196V58h78c36 0 60 21 60 51 0 23-14 40-37 47l42 40h-48l-36-36h-24v36H66Zm35-68h40c16 0 27-8 27-20s-11-20-27-20h-40v40Z" fill="#ffffff"/>
  <path d="M146 48h52l-72 76H74l72-76Z" fill="#ffcc00"/>
  <path d="M101 128h40c16 0 27-8 27-20 0-8-4-14-12-18l-37 38h-18Z" fill="#500000"/>
  <circle cx="198" cy="48" r="13" fill="#ffcc00"/>
  <circle cx="198" cy="48" r="5" fill="#ffffff"/>
</svg>
